<svg width="16" height="16" viewBox="0 0 16 16" fill="none" xmlns="http://www.w3.org/2000/svg">
<g id="interface-content-book-page--pages-content-books-book-open" clip-path="url(#clip0_1460_4427)">
<g id="Group">
<path id="Vector" d="M9.14328 14.2857C9.14269 14.4805 9.0923 14.672 8.99692 14.8418C8.90153 15.0117 8.7643 15.1544 8.59827 15.2563C8.43223 15.3582 8.2429 15.416 8.04826 15.4241C7.85361 15.4323 7.66011 15.3905 7.48613 15.3029L2.9147 13.0171C2.72623 12.9222 2.56774 12.7769 2.45679 12.5973C2.34584 12.4178 2.28677 12.211 2.28613 12V0.571426L8.5147 3.68C8.70492 3.77584 8.86456 3.92293 8.97562 4.10467C9.08669 4.28642 9.14476 4.49558 9.14328 4.70857V14.2857Z" stroke="#F1EFEF" stroke-width="1.4" stroke-linecap="round" stroke-linejoin="round"/>
<path id="Vector_2" d="M2.28613 0.571426H12.5718C12.875 0.571426 13.1656 0.691834 13.38 0.906161C13.5943 1.12049 13.7147 1.41118 13.7147 1.71428V12C13.7147 12.3031 13.5943 12.5938 13.38 12.8081C13.1656 13.0224 12.875 13.1429 12.5718 13.1429H9.14328" stroke="#F1EFEF" stroke-width="1.4" stroke-linecap="round" stroke-linejoin="round"/>
</g>
</g>
<defs>
<clipPath id="clip0_1460_4427">
<rect width="16" height="16" fill="white"/>
</clipPath>
</defs>
</svg>
