<svg width="24" height="24" viewBox="0 0 24 24" fill="none" xmlns="http://www.w3.org/2000/svg">
<g clip-path="url(#clip0_835_906)">
<path d="M17.25 6H16.5V4.875C16.5 4.66789 16.3321 4.5 16.125 4.5H15.375C15.1679 4.5 15 4.66789 15 4.875V6H9V4.875C9 4.66789 8.83211 4.5 8.625 4.5H7.875C7.66789 4.5 7.5 4.66789 7.5 4.875V6H6.75C5.92157 6 5.25 6.67157 5.25 7.5V17.25C5.25 18.0784 5.92157 18.75 6.75 18.75H17.25C18.0784 18.75 18.75 18.0784 18.75 17.25V7.5C18.75 6.67157 18.0784 6 17.25 6ZM17.25 17.25H6.75V9H17.25V17.25ZM11.625 12H12.375C12.5821 12 12.75 11.8321 12.75 11.625V10.875C12.75 10.6679 12.5821 10.5 12.375 10.5H11.625C11.4179 10.5 11.25 10.6679 11.25 10.875V11.625C11.25 11.8321 11.4179 12 11.625 12ZM14.625 12H15.375C15.5821 12 15.75 11.8321 15.75 11.625V10.875C15.75 10.6679 15.5821 10.5 15.375 10.5H14.625C14.4179 10.5 14.25 10.6679 14.25 10.875V11.625C14.25 11.8321 14.4179 12 14.625 12ZM8.625 12H9.375C9.58211 12 9.75 11.8321 9.75 11.625V10.875C9.75 10.6679 9.58211 10.5 9.375 10.5H8.625C8.41789 10.5 8.25 10.6679 8.25 10.875V11.625C8.25 11.8321 8.41789 12 8.625 12ZM11.625 15H12.375C12.5821 15 12.75 14.8321 12.75 14.625V13.875C12.75 13.6679 12.5821 13.5 12.375 13.5H11.625C11.4179 13.5 11.25 13.6679 11.25 13.875V14.625C11.25 14.8321 11.4179 15 11.625 15ZM8.625 15H9.375C9.58211 15 9.75 14.8321 9.75 14.625V13.875C9.75 13.6679 9.58211 13.5 9.375 13.5H8.625C8.41789 13.5 8.25 13.6679 8.25 13.875V14.625C8.25 14.8321 8.41789 15 8.625 15Z" fill="#8A8585"/>
</g>
<defs>
<clipPath id="clip0_835_906">
<rect width="18" height="18" fill="white" transform="translate(3 3)"/>
</clipPath>
</defs>
</svg>
