<svg width="16" height="16" viewBox="0 0 16 16" fill="none" xmlns="http://www.w3.org/2000/svg">
<g clip-path="url(#clip0_2574_6147)">
<path d="M4.85854 8.00028C5.17413 8.00028 5.42997 7.74444 5.42997 7.42885C5.42997 7.11326 5.17413 6.85742 4.85854 6.85742C4.54295 6.85742 4.28711 7.11326 4.28711 7.42885C4.28711 7.74444 4.54295 8.00028 4.85854 8.00028Z" stroke="#ECEBE7" stroke-width="1.2" stroke-linecap="round" stroke-linejoin="round"/>
<path d="M8.57143 8.00028C8.88702 8.00028 9.14286 7.74444 9.14286 7.42885C9.14286 7.11326 8.88702 6.85742 8.57143 6.85742C8.25584 6.85742 8 7.11326 8 7.42885C8 7.74444 8.25584 8.00028 8.57143 8.00028Z" stroke="#ECEBE7" stroke-width="1.2" stroke-linecap="round" stroke-linejoin="round"/>
<path d="M12.2863 8.00028C12.6019 8.00028 12.8577 7.74444 12.8577 7.42885C12.8577 7.11326 12.6019 6.85742 12.2863 6.85742C11.9707 6.85742 11.7148 7.11326 11.7148 7.42885C11.7148 7.74444 11.9707 8.00028 12.2863 8.00028Z" stroke="#ECEBE7" stroke-width="1.2" stroke-linecap="round" stroke-linejoin="round"/>
<path d="M5.14369 14.2866L0.572266 15.4294L1.71512 12.0008V1.71512C1.71512 1.41202 1.83553 1.12133 2.04986 0.907001C2.26419 0.692673 2.55488 0.572266 2.85798 0.572266H14.2866C14.5897 0.572266 14.8803 0.692673 15.0947 0.907001C15.309 1.12133 15.4294 1.41202 15.4294 1.71512V13.1437C15.4294 13.4468 15.309 13.7375 15.0947 13.9518C14.8803 14.1661 14.5897 14.2866 14.2866 14.2866H5.14369Z" stroke="#ECEBE7" stroke-width="1.2" stroke-linecap="round" stroke-linejoin="round"/>
</g>
<defs>
<clipPath id="clip0_2574_6147">
<rect width="16" height="16" fill="white"/>
</clipPath>
</defs>
</svg>
