<svg width="61" height="18" viewBox="0 0 61 18" fill="none" xmlns="http://www.w3.org/2000/svg">
<path d="M8.616 17.192C7.032 17.192 5.664 16.832 4.512 16.112C3.36 15.376 2.472 14.392 1.848 13.16C1.24 11.928 0.936 10.56 0.936 9.056C0.936 7.552 1.24 6.184 1.848 4.952C2.472 3.72 3.36 2.744 4.512 2.024C5.664 1.288 7.032 0.92 8.616 0.92C9.816 0.92 10.896 1.136 11.856 1.568C12.816 1.984 13.632 2.56 14.304 3.296C14.976 4.032 15.48 4.888 15.816 5.864H13.92C13.52 4.888 12.888 4.112 12.024 3.536C11.16 2.96 10.072 2.672 8.76 2.672C7.48 2.672 6.384 2.96 5.472 3.536C4.576 4.096 3.896 4.856 3.432 5.816C2.968 6.776 2.736 7.856 2.736 9.056C2.736 10.24 2.968 11.32 3.432 12.296C3.896 13.256 4.576 14.024 5.472 14.6C6.384 15.16 7.48 15.44 8.76 15.44C10.072 15.44 11.16 15.152 12.024 14.576C12.888 14 13.52 13.224 13.92 12.248H15.816C15.48 13.208 14.976 14.064 14.304 14.816C13.632 15.552 12.816 16.136 11.856 16.568C10.896 16.984 9.816 17.192 8.616 17.192ZM17.8903 17V0.199999H19.6903V17H17.8903ZM27.6362 17.192C26.4682 17.192 25.4442 16.92 24.5642 16.376C23.7002 15.816 23.0282 15.064 22.5482 14.12C22.0682 13.176 21.8282 12.136 21.8282 11C21.8282 9.848 22.0682 8.808 22.5482 7.88C23.0282 6.936 23.7002 6.192 24.5642 5.648C25.4442 5.088 26.4682 4.808 27.6362 4.808C28.6282 4.808 29.4762 5 30.1802 5.384C30.9002 5.768 31.4842 6.288 31.9322 6.944V5H33.7322V17H31.9322V15.08C31.4842 15.72 30.9002 16.232 30.1802 16.616C29.4762 17 28.6282 17.192 27.6362 17.192ZM27.8762 15.56C28.7722 15.56 29.5242 15.352 30.1322 14.936C30.7562 14.52 31.2282 13.968 31.5482 13.28C31.8682 12.576 32.0282 11.816 32.0282 11C32.0282 10.168 31.8682 9.408 31.5482 8.72C31.2282 8.032 30.7562 7.48 30.1322 7.064C29.5242 6.648 28.7722 6.44 27.8762 6.44C26.9962 6.44 26.2362 6.648 25.5962 7.064C24.9562 7.48 24.4682 8.032 24.1322 8.72C23.7962 9.408 23.6282 10.168 23.6282 11C23.6282 11.816 23.7962 12.576 24.1322 13.28C24.4682 13.968 24.9562 14.52 25.5962 14.936C26.2362 15.352 26.9962 15.56 27.8762 15.56ZM41.7656 17.192C40.5656 17.192 39.5256 16.92 38.6456 16.376C37.7656 15.816 37.0776 15.064 36.5816 14.12C36.1016 13.176 35.8616 12.136 35.8616 11C35.8616 9.848 36.1016 8.808 36.5816 7.88C37.0776 6.936 37.7656 6.192 38.6456 5.648C39.5256 5.088 40.5656 4.808 41.7656 4.808C43.1896 4.808 44.3976 5.176 45.3896 5.912C46.3976 6.648 47.0776 7.6 47.4296 8.768H45.4856C45.2136 8.08 44.7736 7.52 44.1656 7.088C43.5736 6.656 42.8536 6.44 42.0056 6.44C41.1256 6.44 40.3576 6.648 39.7016 7.064C39.0456 7.48 38.5416 8.032 38.1896 8.72C37.8376 9.408 37.6616 10.168 37.6616 11C37.6616 11.816 37.8376 12.576 38.1896 13.28C38.5416 13.968 39.0456 14.52 39.7016 14.936C40.3576 15.352 41.1256 15.56 42.0056 15.56C42.8536 15.56 43.5736 15.344 44.1656 14.912C44.7736 14.48 45.2136 13.92 45.4856 13.232H47.4296C47.0776 14.4 46.3976 15.352 45.3896 16.088C44.3976 16.824 43.1896 17.192 41.7656 17.192ZM54.6283 17.192C53.4123 17.192 52.3563 16.92 51.4603 16.376C50.5643 15.816 49.8763 15.064 49.3963 14.12C48.9163 13.176 48.6763 12.136 48.6763 11C48.6763 9.848 48.9163 8.808 49.3963 7.88C49.8763 6.936 50.5643 6.192 51.4603 5.648C52.3563 5.088 53.4123 4.808 54.6283 4.808C55.8603 4.808 56.9163 5.088 57.7963 5.648C58.6923 6.192 59.3803 6.936 59.8603 7.88C60.3403 8.808 60.5803 9.848 60.5803 11C60.5803 12.136 60.3403 13.176 59.8603 14.12C59.3803 15.064 58.6923 15.816 57.7963 16.376C56.9163 16.92 55.8603 17.192 54.6283 17.192ZM54.6283 15.56C55.5243 15.56 56.2763 15.352 56.8843 14.936C57.5083 14.52 57.9803 13.968 58.3003 13.28C58.6203 12.576 58.7803 11.816 58.7803 11C58.7803 10.168 58.6203 9.408 58.3003 8.72C57.9803 8.032 57.5083 7.48 56.8843 7.064C56.2763 6.648 55.5243 6.44 54.6283 6.44C53.7483 6.44 52.9963 6.648 52.3723 7.064C51.7483 7.48 51.2763 8.032 50.9563 8.72C50.6363 9.408 50.4763 10.168 50.4763 11C50.4763 11.816 50.6363 12.576 50.9563 13.28C51.2763 13.968 51.7483 14.52 52.3723 14.936C52.9963 15.352 53.7483 15.56 54.6283 15.56Z" fill="currentColor"/>
</svg>
