<svg width="213" height="471" viewBox="0 0 213 471" fill="none" xmlns="http://www.w3.org/2000/svg">
<path fill-rule="evenodd" clip-rule="evenodd" d="M211 1.00355e-05C212.105 1.00885e-05 213 0.895441 213 2.00001L213 276.15C208.649 277.628 205.519 281.743 205.519 286.588C205.519 291.433 208.649 295.548 213 297.026V469C213 470.105 212.105 471 211 471H2.00001C0.895436 471 -4.40207e-08 470.105 0 469L6.90158e-06 295.825C5.36036 295.072 9.48443 290.473 9.48443 284.911C9.48443 279.35 5.36036 274.751 7.77148e-06 273.998L1.86115e-05 2C1.86555e-05 0.895435 0.895449 0 2.00002 0L211 1.00355e-05Z" fill="#EAE6E6"/>
<path d="M114.074 458C113.985 458.527 113.817 459.048 113.577 459.561C113.336 460.074 113.006 460.534 112.59 460.94C112.173 461.347 111.661 461.679 111.049 461.935C110.436 462.192 109.715 462.32 108.884 462.32C107.903 462.32 107 462.203 106.175 461.969C105.35 461.735 104.645 461.375 104.055 460.885C103.465 460.394 103.009 459.77 102.682 459.009C102.358 458.248 102.195 457.334 102.195 456.264C102.195 455.345 102.332 454.5 102.604 453.734C102.875 452.965 103.283 452.301 103.828 451.744C104.374 451.187 105.045 450.755 105.847 450.446C106.647 450.136 107.578 449.983 108.638 449.983C109.41 449.983 110.12 450.058 110.769 450.209C111.418 450.359 111.983 450.582 112.458 450.875C112.934 451.167 113.305 451.538 113.568 451.981C113.834 452.427 113.965 452.942 113.965 453.53C113.965 454.057 113.817 454.506 113.524 454.876C113.23 455.247 112.763 455.431 112.128 455.431C111.552 455.431 111.119 455.281 110.825 454.98C110.531 454.679 110.383 454.316 110.383 453.896C110.383 453.519 110.515 453.179 110.78 452.878C111.046 452.577 111.39 452.413 111.812 452.382C111.39 451.825 110.626 451.546 109.522 451.546C108.568 451.546 107.794 451.909 107.198 452.63C106.6 453.352 106.303 454.417 106.303 455.816C106.303 457.412 106.563 458.566 107.086 459.274C107.609 459.982 108.367 460.336 109.365 460.336C110.062 460.336 110.674 460.141 111.203 459.748C111.731 459.355 112.055 458.722 112.178 457.85L114.083 458.009L114.074 458Z" fill="#242424"/>
<path d="M99.3222 454.738C99.9726 454.738 100.5 454.211 100.5 453.561C100.5 452.912 99.9726 452.385 99.3222 452.385C98.6718 452.385 98.1445 452.912 98.1445 453.561C98.1445 454.211 98.6718 454.738 99.3222 454.738Z" fill="#242424"/>
<path d="M99.3222 460.018C99.9726 460.018 100.5 459.492 100.5 458.842C100.5 458.192 99.9726 457.666 99.3222 457.666C98.6718 457.666 98.1445 458.192 98.1445 458.842C98.1445 459.492 98.6718 460.018 99.3222 460.018Z" fill="#242424"/>
<path d="M13.5537 286.534H201.041" stroke="#1C1C1C" stroke-width="0.83887" stroke-dasharray="1.68 1.68"/>
<path d="M13.5537 374.219H201.041" stroke="#1C1C1C" stroke-width="0.83887" stroke-dasharray="1.68 1.68"/>
</svg>
