<svg width="87" height="21" viewBox="0 0 87 21" fill="none" xmlns="http://www.w3.org/2000/svg">
<path d="M18.4636 7.1177L15.8096 7.32747C15.5452 5.95946 15.0162 4.89697 14.2228 4.13544C13.4247 3.37391 12.344 2.99087 10.9806 2.99087C9.00151 2.99087 7.59702 3.64296 6.7671 4.94713C5.93717 6.2513 5.51764 8.09355 5.51764 10.4739C5.51764 11.7188 5.64533 12.7858 5.90069 13.6796C6.15605 14.5734 6.50261 15.303 6.9495 15.873C7.39638 16.443 7.92078 16.8625 8.52727 17.1315C9.12919 17.4051 9.77672 17.5374 10.4562 17.5374C12.1023 17.5374 13.3746 17.2045 14.2775 16.5387C15.1804 15.873 15.8552 14.8424 16.3113 13.4379L18.7007 14.0444C18.4727 14.9199 18.1489 15.7499 17.7294 16.5387C17.3099 17.3276 16.7581 18.0253 16.0741 18.6409C15.3901 19.252 14.5511 19.7399 13.5524 20.1001C12.5538 20.4604 11.3727 20.6382 10.0047 20.6382C8.63671 20.6382 7.32342 20.4376 6.10589 20.0363C4.88836 19.635 3.83043 19.024 2.92754 18.1986C2.02466 17.3778 1.31329 16.3427 0.788886 15.0886C0.264482 13.8346 0 12.3663 0 10.67C0 8.97364 0.259922 7.36851 0.775206 6.0689C1.29049 4.76473 1.98818 3.68856 2.8637 2.84039C3.73923 1.99222 4.75156 1.35838 5.89613 0.938855C7.0407 0.519332 8.25367 0.30957 9.53504 0.30957C10.8164 0.30957 12.0157 0.469172 12.987 0.792934C13.9583 1.11214 14.7244 1.5271 15.2852 2.0287L15.8872 0.706293H18.459V7.11314L18.4636 7.1177Z" fill="#ECEBE7"/>
<path d="M27.0928 16.8904C27.0928 17.6793 27.8361 18.0714 29.3272 18.0714V20.2238H20.0566V18.0714C21.5432 18.0714 22.2911 17.6793 22.2911 16.8904V3.28323C22.2911 2.4989 21.5478 2.10218 20.0566 2.10218V0H27.0973V16.8904H27.0928Z" fill="#ECEBE7"/>
<path d="M45.1575 17.2553C45.1575 17.9894 45.4129 18.3588 45.9191 18.3588C46.1653 18.3588 46.3477 18.2494 46.4708 18.0305C46.5939 17.8116 46.6532 17.5562 46.6532 17.2553V15.9146H48.1763V16.7537C48.1763 17.4878 48.0668 18.0898 47.848 18.5549C47.6291 19.02 47.3463 19.3894 46.9952 19.6721C46.6441 19.9548 46.2519 20.1463 45.8142 20.2512C45.3764 20.3561 44.9387 20.4108 44.5009 20.4108C43.4156 20.4108 42.613 20.16 42.0977 19.663C41.5825 19.1659 41.2359 18.5275 41.0581 17.7569C40.8985 18.1445 40.675 18.5093 40.3741 18.8604C40.0777 19.2115 39.7083 19.5216 39.2705 19.7907C38.8328 20.0643 38.3266 20.2786 37.7475 20.4336C37.1683 20.5887 36.5208 20.6707 35.8049 20.6707C34.177 20.6707 32.9914 20.3333 32.2481 19.6584C31.5048 18.9835 31.1309 18.0852 31.1309 16.968C31.1309 16.2657 31.254 15.6912 31.5002 15.2352C31.7465 14.7792 32.0839 14.4098 32.5126 14.118C32.9412 13.8307 33.4519 13.6027 34.0493 13.434C34.6421 13.2652 35.2942 13.1102 35.9919 12.9597C36.6941 12.8092 37.4374 12.6588 38.2263 12.4992C39.0152 12.3396 39.8086 12.1298 40.6157 11.8699V11.0536C40.6157 10.6843 40.561 10.3286 40.4561 9.97745C40.3513 9.62633 40.1825 9.31625 39.9591 9.04721C39.7311 8.7736 39.4392 8.55472 39.079 8.39056C38.7188 8.2264 38.2947 8.13976 37.8068 8.13976C37.0726 8.13976 36.457 8.2036 35.9691 8.33584C35.4766 8.46808 35.0388 8.66416 34.6558 8.92864C35.0753 8.96513 35.4401 9.08825 35.7456 9.29801C36.0511 9.50777 36.2062 9.84977 36.2062 10.324C36.2062 10.8667 36.0283 11.2999 35.6681 11.6236C35.3079 11.9474 34.7789 12.1115 34.0812 12.1115C32.6813 12.1115 31.979 11.4275 31.979 10.0641C31.979 9.57617 32.1249 9.10193 32.4122 8.64592C32.6995 8.18992 33.1236 7.7932 33.6708 7.45119C34.218 7.10919 34.902 6.84015 35.7046 6.63495C36.5117 6.43431 37.4283 6.33398 38.4634 6.33398C39.2705 6.33398 40.0731 6.40694 40.8802 6.55743C41.6873 6.70791 42.4033 6.95871 43.0326 7.31895C43.6618 7.67919 44.1771 8.16712 44.5693 8.79184C44.9615 9.41201 45.1621 10.1963 45.1621 11.1403V17.2598L45.1575 17.2553ZM40.6385 12.9734C39.8132 13.3245 39.0836 13.6118 38.4452 13.8398C37.8068 14.0678 37.2641 14.2958 36.8172 14.5238C36.3703 14.7518 36.0329 15.0117 35.8049 15.299C35.5769 15.5863 35.4629 15.9785 35.4629 16.4664C35.4629 16.9224 35.6225 17.2963 35.9371 17.5973C36.2518 17.8937 36.7534 18.0442 37.4328 18.0442C38.167 18.0442 38.81 17.8526 39.3617 17.465C39.9135 17.082 40.3376 16.5986 40.634 16.0195V12.9734H40.6385Z" fill="#ECEBE7"/>
<path d="M69.4738 15.6554C69.3689 16.2664 69.1774 16.8729 68.8947 17.4657C68.6165 18.0631 68.2335 18.5966 67.7501 19.0663C67.2667 19.5405 66.6739 19.9235 65.9626 20.2199C65.2512 20.5164 64.4167 20.6668 63.4545 20.6668C62.3145 20.6668 61.2703 20.53 60.3172 20.261C59.3642 19.9919 58.5434 19.5679 57.8594 19.0024C57.1754 18.437 56.6464 17.7074 56.2725 16.8227C55.894 15.9381 55.707 14.8756 55.707 13.6307C55.707 12.5636 55.8666 11.5832 56.1813 10.6895C56.4959 9.79571 56.9702 9.02506 57.5994 8.37753C58.2287 7.73001 59.0085 7.22841 59.9387 6.86816C60.8644 6.50792 61.9452 6.33008 63.1673 6.33008C64.061 6.33008 64.8818 6.41672 65.6342 6.59456C66.3866 6.76784 67.0387 7.02776 67.5905 7.36977C68.1422 7.71177 68.5709 8.14041 68.8764 8.6557C69.1819 9.17098 69.337 9.77291 69.337 10.4569C69.337 11.068 69.1683 11.5924 68.8263 12.021C68.4843 12.4496 67.9462 12.664 67.212 12.664C66.5462 12.664 66.0446 12.4907 65.7026 12.1396C65.3606 11.7884 65.1919 11.3689 65.1919 10.881C65.1919 10.4432 65.3469 10.0511 65.6525 9.69995C65.958 9.34882 66.3593 9.1573 66.8472 9.12082C66.3547 8.4733 65.4746 8.14953 64.1933 8.14953C63.0897 8.14953 62.1914 8.56906 61.5028 9.4081C60.8097 10.2471 60.4631 11.4829 60.4631 13.1109C60.4631 14.9668 60.7641 16.3074 61.3706 17.1282C61.9771 17.9491 62.8526 18.364 64.0109 18.364C64.818 18.364 65.5248 18.136 66.1404 17.68C66.7514 17.224 67.1299 16.4898 67.2713 15.473L69.4783 15.6554H69.4738Z" fill="#ECEBE7"/>
<path d="M86.1138 13.4757C86.1138 15.8378 85.4571 17.6298 84.1438 18.8474C82.8306 20.0649 80.9564 20.6714 78.5213 20.6714C77.5409 20.6714 76.6061 20.5665 75.726 20.3567C74.8414 20.147 74.0662 19.7822 73.4004 19.2669C72.7346 18.7516 72.2057 18.0494 71.8135 17.1647C71.4213 16.2801 71.2207 15.1537 71.2207 13.7903C71.2207 8.81986 73.7424 6.33008 78.7858 6.33008C79.7844 6.33008 80.7284 6.43952 81.6221 6.6584C82.5159 6.87728 83.2957 7.26033 83.9614 7.79841C84.6272 8.34105 85.1516 9.07066 85.5392 9.99179C85.9223 10.9129 86.1183 12.0712 86.1183 13.4711L86.1138 13.4757ZM78.7356 8.66938C77.7917 8.66938 77.094 9.00682 76.6471 9.6817C76.2003 10.3566 75.9768 11.4829 75.9768 13.0561C75.9768 14.1414 76.0315 15.0306 76.1364 15.7238C76.2413 16.4169 76.4009 16.9595 76.6107 17.3517C76.8204 17.7438 77.0895 18.0129 77.4132 18.1543C77.737 18.2956 78.1246 18.364 78.5806 18.364C79.5975 18.364 80.3043 17.9946 80.7101 17.2605C81.1114 16.5263 81.3121 15.3088 81.3121 13.6079C81.3121 12.6092 81.2573 11.793 81.1433 11.1546C81.0293 10.5162 80.8652 10.01 80.6463 9.64522C80.4274 9.27586 80.1584 9.02506 79.8437 8.8837C79.5291 8.74234 79.1597 8.67394 78.7402 8.67394L78.7356 8.66938Z" fill="#ECEBE7"/>
<path d="M51.501 12.2734C52.3289 12.2734 53 11.6023 53 10.7744C53 9.94653 52.3289 9.27539 51.501 9.27539C50.6731 9.27539 50.002 9.94653 50.002 10.7744C50.002 11.6023 50.6731 12.2734 51.501 12.2734Z" fill="#ECEBE7"/>
<path d="M51.501 18.9893C52.3289 18.9893 53 18.3182 53 17.4903C53 16.6624 52.3289 15.9912 51.501 15.9912C50.6731 15.9912 50.002 16.6624 50.002 17.4903C50.002 18.3182 50.6731 18.9893 51.501 18.9893Z" fill="#ECEBE7"/>
</svg>
