<svg width="233" height="471" viewBox="0 0 233 471" fill="none" xmlns="http://www.w3.org/2000/svg">
<path fill-rule="evenodd" clip-rule="evenodd" d="M0 3.78028C0 1.69249 1.69249 0 3.78029 0H228.906C230.994 0 232.686 1.69249 232.686 3.78029V298.465C225.423 298.467 219.535 304.356 219.535 311.62C219.535 318.884 225.423 324.773 232.686 324.776V470.306H0V324.442C0.000369068 324.442 0.00073814 324.442 0.00110722 324.442C7.26664 324.442 13.1565 318.552 13.1565 311.286C13.1565 304.021 7.26664 298.131 0.00110722 298.131C0.00073814 298.131 0.000369068 298.131 0 298.131V3.78028Z" fill="white"/>
<circle cx="24.2395" cy="312.839" r="2.86059" fill="#1C1C1C"/>
<circle cx="122.628" cy="312.839" r="2.86059" fill="#1C1C1C"/>
<circle cx="73.4348" cy="312.839" r="2.86059" fill="#1C1C1C"/>
<circle cx="171.825" cy="312.839" r="2.86059" fill="#1C1C1C"/>
<circle cx="48.8372" cy="312.839" r="2.86059" fill="#1C1C1C"/>
<circle cx="147.226" cy="312.839" r="2.86059" fill="#1C1C1C"/>
<circle cx="98.0305" cy="312.839" r="2.86059" fill="#1C1C1C"/>
<circle cx="196.421" cy="312.839" r="2.86059" fill="#1C1C1C"/>
<circle cx="36.5383" cy="312.839" r="2.86059" fill="#1C1C1C"/>
<circle cx="134.927" cy="312.839" r="2.86059" fill="#1C1C1C"/>
<circle cx="85.7317" cy="312.839" r="2.86059" fill="#1C1C1C"/>
<circle cx="184.122" cy="312.839" r="2.86059" fill="#1C1C1C"/>
<circle cx="61.136" cy="312.839" r="2.86059" fill="#1C1C1C"/>
<circle cx="159.527" cy="312.839" r="2.86059" fill="#1C1C1C"/>
<circle cx="110.329" cy="312.839" r="2.86059" fill="#1C1C1C"/>
<circle cx="208.72" cy="312.839" r="2.86059" fill="#1C1C1C"/>
</svg>
