<svg width="48" height="48" viewBox="0 0 48 48" fill="none" xmlns="http://www.w3.org/2000/svg">
<g clip-path="url(#clip0_835_974)">
<path fill-rule="evenodd" clip-rule="evenodd" d="M13.4668 9.99414H15.7959H18.1249V21.1748H19.9873H21.8505V32.8201H18.124V32.8189H13.4668V9.99414ZM26.5093 32.8189H21.8524V9.99414H24.1815H26.5105V21.1748H28.3725H30.2357V9.99414H32.5647H34.8938V32.8189H30.2358V32.8201H26.5093V32.8189ZM34.8945 21.1748H36.7578H38.621V32.8201H34.8945V21.1748ZM40.9503 9.99414H38.6213V32.8189H43.2794V9.99414H40.9503Z" fill="url(#paint0_linear_835_974)"/>
<g filter="url(#filter0_b_835_974)">
<path d="M5.26784 16.699H27.9949V39.426H5.26784V16.699Z" fill="url(#paint1_linear_835_974)" fill-opacity="0.3"/>
<path d="M5.64885 39.045V17.08L27.6139 17.08V39.045L5.64885 39.045Z" stroke="url(#paint2_linear_835_974)" stroke-opacity="0.1" stroke-width="0.762019"/>
</g>
</g>
<defs>
<filter id="filter0_b_835_974" x="-0.0665584" y="11.3648" width="33.3958" height="33.3954" filterUnits="userSpaceOnUse" color-interpolation-filters="sRGB">
<feFlood flood-opacity="0" result="BackgroundImageFix"/>
<feGaussianBlur in="BackgroundImageFix" stdDeviation="2.66707"/>
<feComposite in2="SourceAlpha" operator="in" result="effect1_backgroundBlur_835_974"/>
<feBlend mode="normal" in="SourceGraphic" in2="effect1_backgroundBlur_835_974" result="shape"/>
</filter>
<linearGradient id="paint0_linear_835_974" x1="28.3731" y1="9.99414" x2="28.3731" y2="32.8201" gradientUnits="userSpaceOnUse">
<stop stop-color="#DB5F35"/>
<stop offset="1" stop-color="#F7B29D"/>
</linearGradient>
<linearGradient id="paint1_linear_835_974" x1="5.26784" y1="16.699" x2="27.9949" y2="39.426" gradientUnits="userSpaceOnUse">
<stop stop-color="#DB5F35"/>
<stop offset="1" stop-color="#F7B29D"/>
</linearGradient>
<linearGradient id="paint2_linear_835_974" x1="5.26784" y1="16.699" x2="27.9949" y2="39.426" gradientUnits="userSpaceOnUse">
<stop stop-color="#B14E2D"/>
<stop offset="0.565" stop-color="#F59576"/>
<stop offset="0.785" stop-color="#E9663A"/>
<stop offset="1" stop-color="#F59576"/>
</linearGradient>
<clipPath id="clip0_835_974">
<rect width="48" height="48" fill="white"/>
</clipPath>
</defs>
</svg>
