<svg width="18" height="18" viewBox="0 0 18 18" fill="none" xmlns="http://www.w3.org/2000/svg">
<path d="M6.54025 15.4493L1 17L2.55127 11.4619L12.6961 1.37028C12.8107 1.25307 12.9477 1.15993 13.0988 1.09634C13.25 1.03276 13.4124 1 13.5764 1C13.7404 1 13.9027 1.03276 14.0539 1.09634C14.2051 1.15993 14.342 1.25307 14.4567 1.37028L16.6358 3.56091C16.7512 3.67531 16.8428 3.81143 16.9053 3.9614C16.9678 4.11137 17 4.27223 17 4.43469C17 4.59716 16.9678 4.75802 16.9053 4.90799C16.8428 5.05796 16.7512 5.19407 16.6358 5.30848L6.54025 15.4493Z" stroke="currentColor" stroke-width="1.4" stroke-linecap="round" stroke-linejoin="round"/>
</svg>