<svg width="48" height="48" viewBox="0 0 48 48" fill="none" xmlns="http://www.w3.org/2000/svg">
<circle cx="30.1934" cy="17.8154" r="7.90828" fill="url(#paint0_linear_835_960)"/>
<circle cx="17.8155" cy="30.8809" r="7.90828" fill="url(#paint1_linear_835_960)"/>
<g filter="url(#filter0_b_835_960)">
<circle cx="17.8155" cy="17.8155" r="7.90828" fill="url(#paint2_linear_835_960)" fill-opacity="0.3"/>
<circle cx="17.8155" cy="17.8155" r="7.52727" stroke="url(#paint3_linear_835_960)" stroke-opacity="0.1" stroke-width="0.762019"/>
</g>
<g filter="url(#filter1_b_835_960)">
<path d="M38.1017 30.8809C38.1017 35.2485 34.5611 38.7892 30.1934 38.7892C25.8258 38.7892 22.2852 35.2485 22.2852 30.8809C22.2852 26.5133 25.8258 22.9726 30.1934 22.9726C34.5611 22.9726 38.1017 26.5133 38.1017 30.8809Z" fill="url(#paint4_linear_835_960)" fill-opacity="0.3"/>
<path d="M37.7207 30.8809C37.7207 35.0381 34.3506 38.4082 30.1934 38.4082C26.0362 38.4082 22.6662 35.0381 22.6662 30.8809C22.6662 26.7237 26.0362 23.3536 30.1934 23.3536C34.3506 23.3536 37.7207 26.7237 37.7207 30.8809Z" stroke="url(#paint5_linear_835_960)" stroke-opacity="0.1" stroke-width="0.762019"/>
</g>
<defs>
<filter id="filter0_b_835_960" x="4.57309" y="4.57306" width="26.4847" height="26.4848" filterUnits="userSpaceOnUse" color-interpolation-filters="sRGB">
<feFlood flood-opacity="0" result="BackgroundImageFix"/>
<feGaussianBlur in="BackgroundImageFix" stdDeviation="2.66707"/>
<feComposite in2="SourceAlpha" operator="in" result="effect1_backgroundBlur_835_960"/>
<feBlend mode="normal" in="SourceGraphic" in2="effect1_backgroundBlur_835_960" result="shape"/>
</filter>
<filter id="filter1_b_835_960" x="16.951" y="17.6385" width="26.4847" height="26.4848" filterUnits="userSpaceOnUse" color-interpolation-filters="sRGB">
<feFlood flood-opacity="0" result="BackgroundImageFix"/>
<feGaussianBlur in="BackgroundImageFix" stdDeviation="2.66707"/>
<feComposite in2="SourceAlpha" operator="in" result="effect1_backgroundBlur_835_960"/>
<feBlend mode="normal" in="SourceGraphic" in2="effect1_backgroundBlur_835_960" result="shape"/>
</filter>
<linearGradient id="paint0_linear_835_960" x1="30.1934" y1="9.90717" x2="30.1934" y2="25.7237" gradientUnits="userSpaceOnUse">
<stop stop-color="#DB5F35"/>
<stop offset="1" stop-color="#F7B29D"/>
</linearGradient>
<linearGradient id="paint1_linear_835_960" x1="17.8155" y1="22.9726" x2="17.8155" y2="38.7892" gradientUnits="userSpaceOnUse">
<stop stop-color="#DB5F35"/>
<stop offset="1" stop-color="#F7B29D"/>
</linearGradient>
<linearGradient id="paint2_linear_835_960" x1="17.8155" y1="9.9072" x2="17.8155" y2="25.7237" gradientUnits="userSpaceOnUse">
<stop stop-color="#E9663A"/>
<stop offset="0.135" stop-color="#F19E82"/>
<stop offset="0.43" stop-color="#F9D0C3"/>
<stop offset="0.73" stop-color="#F19C80"/>
<stop offset="1" stop-color="#E9663A"/>
</linearGradient>
<linearGradient id="paint3_linear_835_960" x1="17.8155" y1="9.9072" x2="17.8155" y2="25.7237" gradientUnits="userSpaceOnUse">
<stop stop-color="#E9663A"/>
<stop offset="0.295" stop-color="#E99B80"/>
<stop offset="0.765" stop-color="#E99B80"/>
<stop offset="1" stop-color="#E9663A"/>
</linearGradient>
<linearGradient id="paint4_linear_835_960" x1="30.1934" y1="22.9726" x2="30.1934" y2="38.7892" gradientUnits="userSpaceOnUse">
<stop stop-color="#E9663A"/>
<stop offset="0.135" stop-color="#F19E82"/>
<stop offset="0.43" stop-color="#F9D0C3"/>
<stop offset="0.73" stop-color="#F19C80"/>
<stop offset="1" stop-color="#E9663A"/>
</linearGradient>
<linearGradient id="paint5_linear_835_960" x1="30.1934" y1="22.9726" x2="30.1934" y2="38.7892" gradientUnits="userSpaceOnUse">
<stop stop-color="#E9663A"/>
<stop offset="0.295" stop-color="#E99B80"/>
<stop offset="0.765" stop-color="#E99B80"/>
<stop offset="1" stop-color="#E9663A"/>
</linearGradient>
</defs>
</svg>
