<svg width="11" height="19" viewBox="0 0 11 19" fill="none" xmlns="http://www.w3.org/2000/svg">
<path d="M10.0001 0C9.85005 0 9.70005 0.05 9.57005 0.13C9.44005 0.21 9.33005 0.34 9.26005 0.48L6.81005 5.38C6.75005 5.5 6.67005 5.61 6.56005 5.69C6.45005 5.77 6.32005 5.82 6.18005 5.84L0.770053 6.63C0.610053 6.64 0.460053 6.7 0.330053 6.8C0.200053 6.9 0.110053 7.03 0.0500529 7.18C5.28842e-05 7.33 -0.00994711 7.49 0.0300529 7.65C0.0700529 7.81 0.150053 7.95 0.270053 8.06L4.22005 11.83C4.32005 11.92 4.39005 12.04 4.44005 12.17C4.48005 12.3 4.49005 12.43 4.47005 12.57L3.53005 18.02C3.50005 18.17 3.52005 18.33 3.58005 18.48C3.64005 18.63 3.74005 18.75 3.87005 18.84C4.00005 18.93 4.15005 18.99 4.31005 19C4.47005 19.01 4.63005 18.98 4.77005 18.9L9.64005 16.35C9.76005 16.29 9.89005 16.27 10.0201 16.26V0H10.0001Z" fill="currentColor"/>
</svg>
