<svg width="14" height="14" viewBox="0 0 14 14" fill="none" xmlns="http://www.w3.org/2000/svg">
<path d="M3.36914 5.85025L5.90914 1.79025C6.00758 1.62978 6.1459 1.49754 6.31063 1.40641C6.47537 1.31528 6.66089 1.26837 6.84914 1.27025V1.27025C6.9974 1.2649 7.14523 1.28933 7.28389 1.34208C7.42255 1.39484 7.54923 1.47485 7.65644 1.5774C7.76365 1.67995 7.84921 1.80294 7.90807 1.93912C7.96693 2.0753 7.9979 2.2219 7.99914 2.37025V5.28025H12.3891C12.5514 5.28551 12.7106 5.32505 12.8565 5.39626C13.0023 5.46748 13.1314 5.56876 13.2353 5.69344C13.3392 5.81812 13.4156 5.96338 13.4593 6.11967C13.503 6.27597 13.5132 6.43975 13.4891 6.60025L12.6891 11.7603C12.655 12.036 12.5214 12.2898 12.3133 12.474C12.1052 12.6581 11.837 12.7599 11.5591 12.7603H4.99914C4.68686 12.7615 4.37863 12.6896 4.09914 12.5503L3.37914 12.1903" stroke="currentColor" stroke-width="1.4" stroke-linecap="round" stroke-linejoin="round"/>
<path d="M3.36914 5.84961V12.1596" stroke="currentColor" stroke-width="1.4" stroke-linecap="round" stroke-linejoin="round"/>
<path d="M1 5.84961H3.37V12.1596H1C0.867392 12.1596 0.740215 12.1069 0.646447 12.0132C0.552678 11.9194 0.5 11.7922 0.5 11.6596V6.34961C0.5 6.217 0.552678 6.08982 0.646447 5.99606C0.740215 5.90229 0.867392 5.84961 1 5.84961V5.84961Z" stroke="currentColor" stroke-width="1.4" stroke-linecap="round" stroke-linejoin="round"/>
</svg>
