<svg width="24" height="24" viewBox="0 0 24 24" fill="none" xmlns="http://www.w3.org/2000/svg">
<g clip-path="url(#clip0_835_899)">
<path d="M12 4.5C8.68629 4.5 6 7.18629 6 10.5C6 15.165 9.7875 15.1275 10.695 17.835L11.0775 18.99C11.1847 19.309 11.4914 19.5175 11.8275 19.5H12.2475C12.5836 19.5175 12.8903 19.309 12.9975 18.99L13.38 17.835C14.25 15.1275 18 15.165 18 10.5C18 7.18629 15.3137 4.5 12 4.5ZM12 12.75C10.7574 12.75 9.75 11.7426 9.75 10.5C9.75 9.25736 10.7574 8.25 12 8.25C13.2426 8.25 14.25 9.25736 14.25 10.5C14.25 11.0967 14.0129 11.669 13.591 12.091C13.169 12.5129 12.5967 12.75 12 12.75Z" fill="#8A8585"/>
</g>
<defs>
<clipPath id="clip0_835_899">
<rect width="18" height="18" fill="white" transform="translate(3 3)"/>
</clipPath>
</defs>
</svg>
