<svg width="48" height="48" viewBox="0 0 48 48" fill="none" xmlns="http://www.w3.org/2000/svg">
<g clip-path="url(#clip0_835_948)">
<path d="M38.9105 32.1672C38.9105 27.8605 37.1996 23.7302 34.1543 20.6849C31.109 17.6396 26.9787 15.9288 22.672 15.9288C18.3653 15.9288 14.235 17.6396 11.1897 20.6849C8.14442 23.7302 6.43359 27.8605 6.43359 32.1672L20.4001 32.1672C20.4001 31.5647 20.6395 30.9868 21.0655 30.5607C21.4916 30.1347 22.0695 29.8953 22.672 29.8953C23.2746 29.8953 23.8524 30.1347 24.2785 30.5607C24.7046 30.9868 24.9439 31.5647 24.9439 32.1672H38.9105Z" fill="url(#paint0_linear_835_948)"/>
<g filter="url(#filter0_b_835_948)">
<mask id="path-2-inside-1_835_948" fill="white">
<path d="M44.1975 28.9567C44.1975 25.2718 43.2432 21.6497 41.4275 18.4433C39.6118 15.2368 36.9967 12.5552 33.8367 10.6597L22.861 28.9567H44.1975Z"/>
</mask>
<path d="M44.1975 28.9567C44.1975 25.2718 43.2432 21.6497 41.4275 18.4433C39.6118 15.2368 36.9967 12.5552 33.8367 10.6597L22.861 28.9567H44.1975Z" fill="url(#paint1_linear_835_948)" fill-opacity="0.3"/>
<path d="M44.1975 28.9567C44.1975 25.2718 43.2432 21.6497 41.4275 18.4433C39.6118 15.2368 36.9967 12.5552 33.8367 10.6597L22.861 28.9567H44.1975Z" stroke="url(#paint2_linear_835_948)" stroke-opacity="0.1" stroke-width="1.52404" mask="url(#path-2-inside-1_835_948)"/>
</g>
</g>
<defs>
<filter id="filter0_b_835_948" x="17.5272" y="5.32553" width="32.0042" height="28.9653" filterUnits="userSpaceOnUse" color-interpolation-filters="sRGB">
<feFlood flood-opacity="0" result="BackgroundImageFix"/>
<feGaussianBlur in="BackgroundImageFix" stdDeviation="2.66707"/>
<feComposite in2="SourceAlpha" operator="in" result="effect1_backgroundBlur_835_948"/>
<feBlend mode="normal" in="SourceGraphic" in2="effect1_backgroundBlur_835_948" result="shape"/>
</filter>
<linearGradient id="paint0_linear_835_948" x1="22.672" y1="15.9288" x2="22.672" y2="48.4057" gradientUnits="userSpaceOnUse">
<stop stop-color="#DB5F35"/>
<stop offset="1" stop-color="#F7B29D"/>
</linearGradient>
<linearGradient id="paint1_linear_835_948" x1="22.861" y1="7.62012" x2="22.861" y2="50.2932" gradientUnits="userSpaceOnUse">
<stop stop-color="#DB5F35"/>
<stop offset="1" stop-color="#F7B29D"/>
</linearGradient>
<linearGradient id="paint2_linear_835_948" x1="22.861" y1="7.62012" x2="22.861" y2="50.2932" gradientUnits="userSpaceOnUse">
<stop stop-color="#B14E2D"/>
<stop offset="0.38" stop-color="#F7B29D"/>
<stop offset="0.67" stop-color="#CC5932"/>
<stop offset="1" stop-color="#F59576"/>
</linearGradient>
<clipPath id="clip0_835_948">
<rect width="48" height="48" fill="white"/>
</clipPath>
</defs>
</svg>
