<svg width="15" height="14" viewBox="0 0 15 14" fill="none" xmlns="http://www.w3.org/2000/svg">
<g id="Group">
<g id="Group 1000006186">
<path id="Vector" d="M13.34 11.6614L1.67 7.68286C1.47959 7.61791 1.31371 7.49821 1.19414 7.33946C1.07457 7.18071 1.00689 6.99033 1 6.7933V5.7278C1.00082 5.52573 1.06569 5.32887 1.18567 5.16432C1.30566 4.99977 1.47486 4.87561 1.67 4.80892L13.34 0.840158C13.4149 0.815418 13.4948 0.808404 13.573 0.819691C13.6513 0.830978 13.7256 0.860244 13.79 0.905086C13.8545 0.949929 13.9071 1.00907 13.9436 1.07765C13.9801 1.14623 13.9994 1.22229 14 1.2996V11.202C13.9994 11.2793 13.9801 11.3553 13.9436 11.4239C13.9071 11.4925 13.8545 11.5516 13.79 11.5965C13.7256 11.6413 13.6513 11.6706 13.573 11.6819C13.4948 11.6931 13.4149 11.6861 13.34 11.6614Z" stroke="#ECEBE7" stroke-width="1.4" stroke-linecap="round" stroke-linejoin="round"/>
<path id="Vector_2" d="M8.98 10.1972C8.89581 10.8762 8.55 11.4983 8.013 11.9368C7.476 12.3753 6.78819 12.5972 6.08967 12.5573C5.39114 12.5175 4.73444 12.2188 4.2533 11.7222C3.77216 11.2256 3.50277 10.5683 3.5 9.88435V8.33008" stroke="#ECEBE7" stroke-width="1.4" stroke-linecap="round" stroke-linejoin="round"/>
</g>
</g>
</svg>
