<svg width="48" height="48" viewBox="0 0 48 48" fill="none" xmlns="http://www.w3.org/2000/svg">
<path d="M24.3851 6.09668L24.7728 14.3052C24.7943 14.7617 25.4497 14.8121 25.5407 14.3642L27.1769 6.31101L26.3069 14.4825C26.2586 14.937 26.8986 15.0868 27.0569 14.658L29.9032 6.94899L27.796 14.8919C27.6789 15.3337 28.2885 15.5794 28.5104 15.1799L32.5001 7.99565L29.2052 15.5239C29.022 15.9426 29.587 16.2785 29.8673 15.9175L34.9068 9.42647L30.5014 16.3635C30.2564 16.7493 30.7635 17.1675 31.0956 16.8535L37.067 11.2079L31.6542 17.3911C31.3532 17.735 31.7905 18.2258 32.1666 17.9662L38.9298 13.2982L32.6366 18.5827C32.2866 18.8766 32.6439 19.4284 33.0553 19.2292L40.4518 15.6484L33.4257 19.9103C33.0349 20.1473 33.3038 20.7472 33.7407 20.6131L41.5972 18.2033L34.0028 21.3428C33.5804 21.5174 33.7546 22.1512 34.2069 22.0855L42.3391 20.9032L34.3545 22.8466C33.9104 22.9547 33.9858 23.6076 34.4428 23.6117L42.6602 23.6846L34.4725 24.3864C34.0172 24.4254 33.992 25.0823 34.443 25.1561L42.5529 26.4825L34.3541 25.9262C33.8981 25.8953 33.773 26.5406 34.2075 26.6824L42.0199 29.2313L34.002 27.4299C33.5561 27.3297 33.3339 27.9484 33.7417 28.1548L41.0734 31.8664L33.4245 28.8623C32.9991 28.6952 32.6851 29.2726 33.0566 29.5389L39.7359 34.3262L32.6352 30.1896C32.2403 29.9596 31.8418 30.4824 32.1683 30.8022L38.0385 36.5529L31.6524 31.381C31.2973 31.0933 30.8237 31.5491 31.0975 31.9151L36.021 38.4945L30.4994 32.4083C30.1923 32.0699 29.6546 32.448 29.8694 32.8514L33.7309 40.1054L29.203 33.2476C28.9511 32.8662 28.3621 33.1579 28.5127 33.5894L31.2217 41.3477L27.7937 33.8792C27.603 33.4638 26.9763 33.6622 27.0593 34.1116L28.5522 42.1925L26.3044 34.2882C26.1794 33.8486 25.5298 33.949 25.5433 34.4058L25.7851 42.62L24.7703 34.4652C24.7138 34.0116 24.0565 34.0116 24 34.4652L22.9852 42.62L23.227 34.4058C23.2405 33.949 22.5909 33.8486 22.4658 34.2882L20.2181 42.1925L21.711 34.1116C21.794 33.6622 21.1673 33.4638 20.9766 33.8792L17.5486 41.3477L20.2576 33.5894C20.4082 33.1579 19.8191 32.8662 19.5673 33.2476L15.0394 40.1054L18.9009 32.8515C19.1157 32.448 18.578 32.0698 18.2709 32.4083L12.7492 38.4945L17.6728 31.9151C17.9466 31.5491 17.473 31.0933 17.1179 31.381L10.7318 36.5529L16.602 30.8022C16.9285 30.4824 16.53 29.9596 16.1351 30.1896L9.03444 34.3262L15.7137 29.5389C16.0852 29.2726 15.7712 28.6952 15.3458 28.8623L7.69685 31.8664L15.0286 28.1548C15.4364 27.9484 15.2142 27.3297 14.7683 27.4299L6.75043 29.2313L14.5628 26.6824C14.9973 26.5406 14.8722 25.8953 14.4162 25.9262L6.21735 26.4825L14.3273 25.1561C14.7783 25.0823 14.7531 24.4254 14.2978 24.3864L6.1101 23.6846L14.3275 23.6117C14.7845 23.6076 14.8599 22.9547 14.4158 22.8466L6.43121 20.9032L14.5634 22.0855C15.0157 22.1512 15.1899 21.5174 14.7675 21.3428L7.17314 18.2033L15.0296 20.6131C15.4665 20.7472 15.7354 20.1473 15.3446 19.9103L8.3185 15.6484L15.715 19.2292C16.1264 19.4284 16.4837 18.8766 16.1337 18.5827L9.84046 13.2982L16.6037 17.9661C16.9798 18.2258 17.4171 17.735 17.1161 17.3911L11.7033 11.2079L17.6747 16.8535C18.0068 17.1675 18.5139 16.7493 18.2689 16.3635L13.8635 9.42647L18.903 15.9175C19.1833 16.2785 19.7483 15.9426 19.5651 15.5239L16.2702 7.99565L20.2599 15.1799C20.4818 15.5794 21.0914 15.3337 20.9742 14.8919L18.8671 6.94899L21.7134 14.658C21.8717 15.0868 22.5117 14.937 22.4634 14.4825L21.5934 6.31101L23.2296 14.3642C23.3205 14.8121 23.9759 14.7617 23.9975 14.3052L24.3851 6.09668Z" fill="url(#paint0_linear_835_968)"/>
<g filter="url(#filter0_b_835_968)">
<path d="M21.3372 30.4807C21.3372 33.4266 18.949 35.8148 16.0031 35.8148C13.0571 35.8148 10.6689 33.4266 10.6689 30.4807C10.6689 27.5347 13.0571 25.1465 16.0031 25.1465C18.949 25.1465 21.3372 27.5347 21.3372 30.4807Z" fill="url(#paint1_linear_835_968)" fill-opacity="0.3"/>
<path d="M20.9562 30.4807C20.9562 33.2162 18.7386 35.4338 16.0031 35.4338C13.2675 35.4338 11.05 33.2162 11.05 30.4807C11.05 27.7451 13.2675 25.5275 16.0031 25.5275C18.7386 25.5275 20.9562 27.7451 20.9562 30.4807Z" stroke="url(#paint2_linear_835_968)" stroke-opacity="0.1" stroke-width="0.762019"/>
</g>
<g filter="url(#filter1_b_835_968)">
<path d="M10.6681 37.7198C10.6681 39.1928 9.47403 40.3869 8.00105 40.3869C6.52807 40.3869 5.33398 39.1928 5.33398 37.7198C5.33398 36.2469 6.52807 35.0528 8.00105 35.0528C9.47403 35.0528 10.6681 36.2469 10.6681 37.7198Z" fill="url(#paint3_linear_835_968)" fill-opacity="0.3"/>
<path d="M10.63 37.7198C10.63 39.1718 9.45299 40.3488 8.00105 40.3488C6.54911 40.3488 5.37209 39.1718 5.37209 37.7198C5.37209 36.2679 6.54911 35.0909 8.00105 35.0909C9.45299 35.0909 10.63 36.2679 10.63 37.7198Z" stroke="url(#paint4_linear_835_968)" stroke-opacity="0.1" stroke-width="0.0762019"/>
</g>
<defs>
<filter id="filter0_b_835_968" x="6.85885" y="21.3364" width="18.2882" height="18.2885" filterUnits="userSpaceOnUse" color-interpolation-filters="sRGB">
<feFlood flood-opacity="0" result="BackgroundImageFix"/>
<feGaussianBlur in="BackgroundImageFix" stdDeviation="1.90505"/>
<feComposite in2="SourceAlpha" operator="in" result="effect1_backgroundBlur_835_968"/>
<feBlend mode="normal" in="SourceGraphic" in2="effect1_backgroundBlur_835_968" result="shape"/>
</filter>
<filter id="filter1_b_835_968" x="1.52389" y="31.2427" width="12.9542" height="12.9543" filterUnits="userSpaceOnUse" color-interpolation-filters="sRGB">
<feFlood flood-opacity="0" result="BackgroundImageFix"/>
<feGaussianBlur in="BackgroundImageFix" stdDeviation="1.90505"/>
<feComposite in2="SourceAlpha" operator="in" result="effect1_backgroundBlur_835_968"/>
<feBlend mode="normal" in="SourceGraphic" in2="effect1_backgroundBlur_835_968" result="shape"/>
</filter>
<linearGradient id="paint0_linear_835_968" x1="24.3851" y1="6.09668" x2="24.3851" y2="42.6736" gradientUnits="userSpaceOnUse">
<stop stop-color="#DB5F35"/>
<stop offset="1" stop-color="#F7B29D"/>
</linearGradient>
<linearGradient id="paint1_linear_835_968" x1="16.0031" y1="25.1465" x2="16.0031" y2="35.8148" gradientUnits="userSpaceOnUse">
<stop stop-color="#E9663A"/>
<stop offset="0.135" stop-color="#F19E82"/>
<stop offset="0.43" stop-color="#F9D0C3"/>
<stop offset="0.73" stop-color="#F19C80"/>
<stop offset="1" stop-color="#E9663A"/>
</linearGradient>
<linearGradient id="paint2_linear_835_968" x1="16.0031" y1="25.1465" x2="16.0031" y2="35.8148" gradientUnits="userSpaceOnUse">
<stop stop-color="#E9663A"/>
<stop offset="0.295" stop-color="#E99B80"/>
<stop offset="0.765" stop-color="#E99B80"/>
<stop offset="1" stop-color="#E9663A"/>
</linearGradient>
<linearGradient id="paint3_linear_835_968" x1="8.00105" y1="35.0528" x2="8.00105" y2="40.3869" gradientUnits="userSpaceOnUse">
<stop stop-color="#E9663A"/>
<stop offset="0.135" stop-color="#F19E82"/>
<stop offset="0.43" stop-color="#F9D0C3"/>
<stop offset="0.73" stop-color="#F19C80"/>
<stop offset="1" stop-color="#E9663A"/>
</linearGradient>
<linearGradient id="paint4_linear_835_968" x1="8.00105" y1="35.0528" x2="8.00105" y2="40.3869" gradientUnits="userSpaceOnUse">
<stop stop-color="#E9663A"/>
<stop offset="0.295" stop-color="#E99B80"/>
<stop offset="0.765" stop-color="#E99B80"/>
<stop offset="1" stop-color="#E9663A"/>
</linearGradient>
</defs>
</svg>
