<svg width="20" height="20" viewBox="0 0 20 20" fill="none" xmlns="http://www.w3.org/2000/svg">
<g id="interface-setting-cog--work-loading-cog-gear-settings-machine" clip-path="url(#clip0_2985_7367)">
<path id="Vector" d="M7.47166 3.21094L8.08595 1.62522C8.18955 1.35674 8.37181 1.12581 8.60888 0.962669C8.84594 0.799529 9.12675 0.711788 9.41452 0.710938H10.5859C10.8737 0.711788 11.1545 0.799529 11.3916 0.962669C11.6287 1.12581 11.8109 1.35674 11.9145 1.62522L12.5288 3.21094L14.6145 4.41094L16.3002 4.15379C16.5809 4.1157 16.8666 4.1619 17.121 4.28654C17.3753 4.41118 17.5869 4.60863 17.7288 4.85379L18.3002 5.85379C18.4467 6.10286 18.5141 6.39048 18.4937 6.67868C18.4733 6.96688 18.366 7.24212 18.1859 7.46808L17.1431 8.79665V11.1967L18.2145 12.5252C18.3946 12.7512 18.5019 13.0264 18.5223 13.3146C18.5427 13.6028 18.4752 13.8904 18.3288 14.1395L17.7574 15.1395C17.6155 15.3847 17.4039 15.5821 17.1495 15.7068C16.8952 15.8314 16.6095 15.8776 16.3288 15.8395L14.6431 15.5824L12.5574 16.7824L11.9431 18.3681C11.8395 18.6366 11.6572 18.8675 11.4202 19.0306C11.1831 19.1938 10.9023 19.2815 10.6145 19.2824H9.41452C9.12675 19.2815 8.84594 19.1938 8.60888 19.0306C8.37181 18.8675 8.18955 18.6366 8.08595 18.3681L7.47166 16.7824L5.38595 15.5824L3.70023 15.8395C3.41954 15.8776 3.13386 15.8314 2.87949 15.7068C2.62513 15.5821 2.41355 15.3847 2.27166 15.1395L1.70023 14.1395C1.55381 13.8904 1.48634 13.6028 1.50675 13.3146C1.52715 13.0264 1.63446 12.7512 1.81452 12.5252L2.85738 11.1967V8.79665L1.78595 7.46808C1.60589 7.24212 1.49858 6.96688 1.47818 6.67868C1.45777 6.39048 1.52524 6.10286 1.67166 5.85379L2.24309 4.85379C2.38498 4.60863 2.59655 4.41118 2.85092 4.28654C3.10529 4.1619 3.39097 4.1157 3.67166 4.15379L5.35738 4.41094L7.47166 3.21094ZM7.14309 9.99665C7.14309 10.5617 7.31066 11.1141 7.62461 11.584C7.93855 12.0539 8.38478 12.4201 8.90685 12.6363C9.42893 12.8526 10.0034 12.9091 10.5576 12.7989C11.1119 12.6887 11.621 12.4165 12.0205 12.017C12.4201 11.6174 12.6922 11.1083 12.8025 10.5541C12.9127 9.99982 12.8561 9.42535 12.6399 8.90327C12.4236 8.3812 12.0574 7.93497 11.5876 7.62102C11.1177 7.30708 10.5653 7.13951 10.0002 7.13951C9.24247 7.13951 8.51575 7.44053 7.97993 7.97635C7.44411 8.51216 7.14309 9.23889 7.14309 9.99665V9.99665Z" stroke="#ECEBE7" stroke-width="1.6" stroke-linecap="round" stroke-linejoin="round"/>
</g>
<defs>
<clipPath id="clip0_2985_7367">
<rect width="20" height="20" fill="white"/>
</clipPath>
</defs>
</svg>
