<svg width="19" height="19" viewBox="0 0 19 19" fill="none" xmlns="http://www.w3.org/2000/svg">
<g clip-path="url(#clip0_2985_6579)">
<path d="M1.35742 4.75H17.6431" stroke="#ECEBE7" stroke-width="1.4" stroke-linecap="round" stroke-linejoin="round"/>
<path d="M3.39355 4.75H15.6078V16.9643C15.6078 17.3242 15.4649 17.6694 15.2103 17.9239C14.9558 18.1784 14.6106 18.3214 14.2507 18.3214H4.7507C4.39076 18.3214 4.04557 18.1784 3.79105 17.9239C3.53654 17.6694 3.39355 17.3242 3.39355 16.9643V4.75Z" stroke="#ECEBE7" stroke-width="1.4" stroke-linecap="round" stroke-linejoin="round"/>
<path d="M6.10742 4.75014V4.07157C6.10742 3.17173 6.46488 2.30874 7.10117 1.67246C7.73745 1.03617 8.60044 0.678711 9.50028 0.678711C10.4001 0.678711 11.2631 1.03617 11.8994 1.67246C12.5357 2.30874 12.8931 3.17173 12.8931 4.07157V4.75014" stroke="#ECEBE7" stroke-width="1.4" stroke-linecap="round" stroke-linejoin="round"/>
<path d="M7.46484 7.46436V14.9286" stroke="#ECEBE7" stroke-width="1.4" stroke-linecap="round" stroke-linejoin="round"/>
<path d="M11.5361 7.46436V14.9286" stroke="#ECEBE7" stroke-width="1.4" stroke-linecap="round" stroke-linejoin="round"/>
</g>
<defs>
<clipPath id="clip0_2985_6579">
<rect width="19" height="19" fill="white"/>
</clipPath>
</defs>
</svg>
