<svg width="96" height="96" viewBox="0 0 96 96" fill="none" xmlns="http://www.w3.org/2000/svg">
<rect x="55.0005" y="55" width="17" height="17" fill="url(#paint0_linear_2481_10728)"/>
<rect x="41.0005" y="41" width="17" height="17" transform="rotate(-180 41.0005 41)" fill="url(#paint1_linear_2481_10728)"/>
<rect x="24.0005" y="55" width="17" height="17" fill="url(#paint2_linear_2481_10728)"/>
<rect x="72.0005" y="41" width="17" height="17" transform="rotate(-180 72.0005 41)" fill="url(#paint3_linear_2481_10728)"/>
<g filter="url(#filter0_b_2481_10728)">
<path d="M72.0007 24.0002L56.1464 48.0005L72.0007 72.0007L48.0005 56.1464L24.0003 72.0007L39.8545 48.0005L24.0003 24.0002L48.0005 39.8545L72.0007 24.0002Z" fill="url(#paint4_linear_2481_10728)" fill-opacity="0.3"/>
</g>
<g filter="url(#filter1_b_2481_10728)">
<path d="M69.0005 48.5C57.678 48.5 48.5005 39.3225 48.5005 28C48.5005 39.3225 39.3212 48.5 28.0005 48.5C39.323 48.5 48.5005 57.6775 48.5005 69C48.5005 57.6775 57.6798 48.5 69.0005 48.5Z" fill="url(#paint5_linear_2481_10728)" fill-opacity="0.3"/>
</g>
<g filter="url(#filter2_b_2481_10728)">
<path d="M56.5956 56.5979C52.0544 52.0567 52.0544 44.6949 56.5956 40.1537C52.0544 44.6949 44.6919 44.6942 40.1514 40.1537C44.6926 44.6949 44.6926 52.0567 40.1515 56.5979C44.6926 52.0567 52.0551 52.0574 56.5956 56.5979Z" fill="url(#paint6_radial_2481_10728)"/>
</g>
<defs>
<filter id="filter0_b_2481_10728" x="15.6509" y="15.6509" width="64.6992" height="64.6992" filterUnits="userSpaceOnUse" color-interpolation-filters="sRGB">
<feFlood flood-opacity="0" result="BackgroundImageFix"/>
<feGaussianBlur in="BackgroundImageFix" stdDeviation="4.17467"/>
<feComposite in2="SourceAlpha" operator="in" result="effect1_backgroundBlur_2481_10728"/>
<feBlend mode="normal" in="SourceGraphic" in2="effect1_backgroundBlur_2481_10728" result="shape"/>
</filter>
<filter id="filter1_b_2481_10728" x="19.6511" y="19.6507" width="57.6987" height="57.6987" filterUnits="userSpaceOnUse" color-interpolation-filters="sRGB">
<feFlood flood-opacity="0" result="BackgroundImageFix"/>
<feGaussianBlur in="BackgroundImageFix" stdDeviation="4.17467"/>
<feComposite in2="SourceAlpha" operator="in" result="effect1_backgroundBlur_2481_10728"/>
<feBlend mode="normal" in="SourceGraphic" in2="effect1_backgroundBlur_2481_10728" result="shape"/>
</filter>
<filter id="filter2_b_2481_10728" x="31.8021" y="31.8043" width="33.1428" height="33.1429" filterUnits="userSpaceOnUse" color-interpolation-filters="sRGB">
<feFlood flood-opacity="0" result="BackgroundImageFix"/>
<feGaussianBlur in="BackgroundImageFix" stdDeviation="4.17467"/>
<feComposite in2="SourceAlpha" operator="in" result="effect1_backgroundBlur_2481_10728"/>
<feBlend mode="normal" in="SourceGraphic" in2="effect1_backgroundBlur_2481_10728" result="shape"/>
</filter>
<linearGradient id="paint0_linear_2481_10728" x1="63.5005" y1="55" x2="63.5005" y2="72" gradientUnits="userSpaceOnUse">
<stop stop-color="#DB5F35"/>
<stop offset="1" stop-color="#F7B29D"/>
</linearGradient>
<linearGradient id="paint1_linear_2481_10728" x1="49.5005" y1="41" x2="49.5005" y2="58" gradientUnits="userSpaceOnUse">
<stop stop-color="#DB5F35"/>
<stop offset="1" stop-color="#F7B29D"/>
</linearGradient>
<linearGradient id="paint2_linear_2481_10728" x1="32.5005" y1="55" x2="32.5005" y2="72" gradientUnits="userSpaceOnUse">
<stop stop-color="#DB5F35"/>
<stop offset="1" stop-color="#F7B29D"/>
</linearGradient>
<linearGradient id="paint3_linear_2481_10728" x1="80.5005" y1="41" x2="80.5005" y2="58" gradientUnits="userSpaceOnUse">
<stop stop-color="#DB5F35"/>
<stop offset="1" stop-color="#F7B29D"/>
</linearGradient>
<linearGradient id="paint4_linear_2481_10728" x1="72.0007" y1="24.0002" x2="24.0003" y2="72.0007" gradientUnits="userSpaceOnUse">
<stop stop-color="#DB5F35"/>
<stop offset="1" stop-color="#F7B29D"/>
</linearGradient>
<linearGradient id="paint5_linear_2481_10728" x1="48.5005" y1="28" x2="48.5005" y2="69" gradientUnits="userSpaceOnUse">
<stop stop-color="#DB5F35"/>
<stop offset="1" stop-color="#F7B29D"/>
</linearGradient>
<radialGradient id="paint6_radial_2481_10728" cx="0" cy="0" r="1" gradientUnits="userSpaceOnUse" gradientTransform="translate(48.3735 48.3758) rotate(135) scale(11.6278)">
<stop stop-color="#DB5F35"/>
<stop offset="1" stop-color="#F7B29D"/>
</radialGradient>
</defs>
</svg>
